<svg width="1920" height="1080" viewBox="0 0 1920 1080" xmlns="http://www.w3.org/2000/svg">
  <!-- Background gradient -->
  <defs>
    <linearGradient id="bgGradient" x1="0%" y1="0%" x2="100%" y2="100%">
      <stop offset="0%" stop-color="#4a148c" />
      <stop offset="100%" stop-color="#7b1fa2" />
    </linearGradient>
    <pattern id="pattern1" x="0" y="0" width="60" height="60" patternUnits="userSpaceOnUse">
      <circle cx="30" cy="30" r="1.5" fill="#ffffff" fill-opacity="0.2"/>
    </pattern>
  </defs>
  
  <!-- Main background -->
  <rect width="1920" height="1080" fill="url(#bgGradient)" />
  
  <!-- Decorative elements -->
  <rect width="1920" height="1080" fill="url(#pattern1)" />
  
  <!-- Abstract shapes -->
  <circle cx="200" cy="200" r="400" fill="#9c27b0" fill-opacity="0.1" />
  <circle cx="1720" cy="880" r="500" fill="#6a1b9a" fill-opacity="0.1" />
  
  <!-- Diagonal lines -->
  <g stroke="#ffffff" stroke-opacity="0.05" stroke-width="2">
    <line x1="0" y1="0" x2="1920" y2="1080" />
    <line x1="1920" y1="0" x2="0" y2="1080" />
  </g>
  
  <!-- Event-related decorative elements -->
  <g fill="#ffffff" fill-opacity="0.05">
    <!-- Stylized champagne glass -->
    <path d="M960 300 L920 600 L940 620 L940 680 L980 680 L980 620 L1000 600 Z" />
    
    <!-- Stylized balloon -->
    <path d="M1200 400 Q1250 300 1300 400 Q1350 500 1300 600 Q1250 700 1200 600 Q1150 500 1200 400 Z" />
    <line x1="1250" y1="600" x2="1250" y2="700" stroke="#ffffff" stroke-opacity="0.05" stroke-width="2" />
    
    <!-- Stylized gift box -->
    <rect x="600" y="500" width="100" height="100" />
    <rect x="640" y="500" width="20" height="100" fill="#9c27b0" fill-opacity="0.2" />
    <rect x="600" y="540" width="100" height="20" fill="#9c27b0" fill-opacity="0.2" />
  </g>
</svg>